<svg version="1.2" xmlns="http://www.w3.org/2000/svg" viewBox="0 0 5896 2482" width="5896" height="2482">
	<title>LAGUNA BLU logo DEFINITIVO3_OK-svg</title>
	<style>
		.s0 { fill: #6b1c23 } 
		.s1 { fill: #231f20 } 
		.s2 { fill: #fbc707 } 
	</style>
	<g id="g8">
		<g id="g10">
			<path id="path14" class="s0" d="m354 2034.2c57.3-2.2 78.6-7.7 78.6-95.8v-507c0-88.1-21.3-93.5-78.6-95.7v-26.1h329.2v26.1c-57.3 2.2-78.6 7.6-78.6 95.7v511.4c0 65.2 15.7 74 94.3 74 111 0 171.1-89.3 199.8-211.1l22.2 8.7-34.3 245.9h-532.6z"/>
			<path id="path16" fill-rule="evenodd" class="s0" d="m1349.9 1965.6c0 18.5 0 43.5 22.2 43.5 7.4 0 13-2.1 18.5-6.5v26.1c-28.6 26.1-64.7 45.7-98.9 45.7-40.7 0-69.4-22.8-83.2-67.4-37 36.9-85.1 67.4-135.1 67.4-63.8 0-104.5-37-104.5-111 0-121.8 152.6-179.5 236.8-209.9v-92.5c0-65.3-19.4-90.3-59.2-90.3-29.6 0-58.3 16.3-58.3 43.5 0 29.4 25 30.5 25 75.1 0 44.6-32.4 72.9-69.4 72.9-38.8 0-61.9-35.9-61.9-78.4 0-108.8 109.1-144.7 185.9-144.7 102.6 0 182.1 27.2 182.1 164.3zm-144.2-174c-48.1 15.2-92.5 54.4-92.5 120.7 0 30.5 7.4 78.3 40.7 78.3 27.7 0 51.8-15.2 51.8-62z"/>
			<path id="path18" fill-rule="evenodd" class="s0" d="m1853.9 1617.5h-65.6c24.9 31.5 38.8 71.8 38.8 115.3 0 107.7-84.1 176.2-189.6 176.2-50.8 0-77.6 8.7-77.6 40.3 0 32.6 25.9 44.6 65.6 44.6 21.3 0 34.2-2.2 66.6-2.2 77.7 0 160.9 27.2 160.9 149.1 0 141.4-115.6 183.8-216.4 183.8-61.9 0-192.3-8.7-192.3-110.9 0-47.9 30.5-71.8 68.4-82.7v-2.2c-36.1-15.2-59.2-57.7-59.2-101.2 0-68.5 47.2-101.1 96.2-131.6-66.6-34.8-111.9-88.1-111.9-174.1 0-118.6 97.1-182.8 201.6-182.8 31.4 0 74.9 10.9 102.6 20.7h111.9zm-185.8 530.9c-36.1 0-80.5 0-115.6-7.6-13.9 17.4-22.2 39.2-22.2 63.1 0 67.5 64.7 82.7 110 82.7 43.5 0 146.1-14.1 146.1-88.1 0-24-12-50.1-65.6-50.1zm-37-577.7c-49 0-49 87.1-49 145.8 0 63.1 2.7 154.5 51.8 154.5 48 0 49-71.8 49-154.5 0-43.5 0-145.8-51.8-145.8z"/>
			<path id="path20" class="s0" d="m2320 1950.4c0 56.6 24 66.4 45.3 66.4v26.1c-40.7 1-126.7 16.3-185.9 37h-3.7v-67.5c-46.2 35.9-82.3 62-132.2 62-77.7 0-117.4-50-117.4-141.4v-301.4c0-39.1-12.1-52.2-45.4-52.2v-26.1h189.6v354.7c0 75 13.9 96.8 45.3 96.8 17.6 0 48.1-14.2 60.1-29.4v-298.1c0-89.2-10.1-94.6-45.3-97.9v-26.1h189.6z"/>
			<path id="path22" class="s0" d="m2394.9 2034.2c44.4 0 45.3-27.2 45.3-68.6v-334c0-39.1-12-52.2-45.3-52.2v-26.1h189.6v66.4h1.8c18.5-37 59.2-80.6 125.8-80.6 78.6 0 122.1 51.2 122.1 142.6v283.9c0 41.4 0.9 68.6 45.3 68.6v26.1h-225.7v-26.1c35.2 0 36.1-27.2 36.1-68.6v-242.6c0-68.5-1.8-108.8-42.5-108.8-29.6 0-62.9 34.8-62.9 66.4v285c0 41.4 0.9 68.6 36 68.6v26.1h-225.6z"/>
			<path id="path24" fill-rule="evenodd" class="s0" d="m3303 1965.6c0 18.5 0 43.5 22.2 43.5 7.4 0 12.9-2.1 18.5-6.5v26.1c-28.7 26.1-64.7 45.7-99 45.7-40.6 0-69.3-22.8-83.2-67.4-37 36.9-85.1 67.4-135 67.4-63.8 0-104.5-37-104.5-111 0-121.8 152.6-179.5 236.7-209.9v-92.5c0-65.3-19.4-90.3-59.1-90.3-29.6 0-58.3 16.3-58.3 43.5 0 29.4 25 30.5 25 75.1 0 44.6-32.4 72.9-69.4 72.9-38.8 0-61.9-35.9-61.9-78.4 0-108.8 109.1-144.7 185.8-144.7 102.7 0 182.2 27.2 182.2 164.3zm-144.3-174c-48 15.2-92.4 54.4-92.4 120.7 0 30.5 7.4 78.3 40.7 78.3 27.7 0 51.7-15.2 51.7-62z"/>
			<path id="path26" fill-rule="evenodd" class="s1" d="m3405.1 2053.1c57.4-2.2 78.6-7.7 78.6-95.8v-507c0-88.1-21.2-93.5-78.6-95.7v-26.1h296.9c86.9 0 165.5 2.2 209 46.8 25.9 26.1 49 55.5 49 126.2 0 71.8-37 121.8-90.6 151.2-25.9 14.1-44.4 19.6-61.1 22.8v2.2c33.3 4.4 65.7 17.4 97.1 33.7 45.3 24 93.4 86 93.4 153.4 0 148-100.8 198-227.5 211.1-30.5 3.3-79.5 3.3-104.5 3.3h-261.7zm250.6-390.6h36.1c46.2 0 96.2-23.9 96.2-145.8 0-51.1-8.3-100.1-37-129.5-18.5-19.5-46.2-20.6-60.1-20.6-28.7 0-35.2 14.1-35.2 32.6zm0 302.5c0 70.7 4.7 76.1 46.3 76.1 94.3 0 117.4-71.8 117.4-167.5 0-131.7-61-173-123.9-173h-39.8z"/>
			<path id="path28" class="s1" d="m4054.3 2053.1c44.4 0 45.3-27.2 45.3-68.6v-577.7c0-39.1-12-52.2-45.3-52.2v-26.1h189.6v656c0 41.4 0.9 68.6 36 68.6v26.1h-225.6z"/>
			<path id="path30" class="s1" d="m4754.3 1969.3c0 56.6 24.1 66.3 45.3 66.3v26.2c-40.6 1-126.7 16.3-185.8 37h-3.7v-67.5c-46.3 35.9-82.3 62-132.3 62-77.7 0-117.4-50-117.4-141.4v-301.4c0-39.1-12-52.2-45.3-52.2v-26.1h189.5v354.7c0 75 13.9 96.8 45.4 96.8 17.5 0 48-14.2 60.1-29.4v-298.1c0-89.2-10.2-94.6-45.3-97.9v-26.1h189.5z"/>
			<path id="path32" fill-rule="evenodd" class="s1" d="m4991.1 1810.4c0 99 34.2 193.7 122 193.7 54.6 0 84.2-33.7 111.9-79.4l20.4 14.1c-25 78.4-88.8 154.5-192.4 154.5-140.5 0-207.1-122.9-207.1-274.2 0-146.8 79.5-261.1 211.7-261.1 72.2 0 143.4 49 169.3 130.6 13.8 42.4 15.7 71.8 15.7 121.8zm120.2-38v-52.3c0-80.5-5.5-130.5-53.6-130.5-56.4 0-64.8 81.6-67.5 182.8z"/>
			<path id="path34" class="s1" d="m5307.3 1905.1h18.5c11.1 67.4 58.3 156.7 123.9 156.7 35.2 0 69.4-19.6 69.4-65.3 0-38.1-15.7-58.8-96.2-103.4-74.9-41.3-119.3-92.4-119.3-173 0-99 58.3-162.1 140.6-162.1 36.1 0 56.4 5.5 71.2 12 14.8 6.5 23.1 12 32.4 12 13.8 0 22.2-12 22.2-24h18.5v164.3h-18.5c-8.4-63.1-50-132.7-108.2-132.7-33.3 0-60.1 21.8-60.1 59.8 0 37 24 57.7 80.4 88.2 62 33.7 127.6 70.7 127.6 183.8 0 106.6-65.6 171.9-154.4 171.9-48.1 0-87.9-25-104.5-25-13 0-22.2 13-25 25h-18.5z"/>
			<path id="path36" fill-rule="evenodd" class="s2" d="m3386.2 2034.2c57.4-2.2 78.6-7.7 78.6-95.8v-507c0-88.1-21.2-93.5-78.6-95.7v-26.1h296.9c86.9 0 165.5 2.2 209 46.8 25.9 26.1 49 55.5 49 126.2 0 71.8-37 121.8-90.6 151.2-25.9 14.1-44.4 19.6-61.1 22.8v2.2c33.3 4.4 65.7 17.4 97.1 33.7 45.3 24 93.4 86 93.4 153.4 0 148-100.8 198-227.5 211.1-30.5 3.3-79.5 3.3-104.5 3.3h-261.7zm250.6-390.6h36.1c46.2 0 96.2-23.9 96.2-145.8 0-51.1-8.3-100.1-37-129.4-18.5-19.6-46.2-20.7-60.1-20.7-28.7 0-35.2 14.1-35.2 32.6zm0 302.5c0 70.7 4.7 76.1 46.3 76.1 94.3 0 117.4-71.8 117.4-167.5 0-131.7-61-173-123.9-173h-39.8z"/>
			<path id="path38" class="s2" d="m4035.4 2034.2c44.4 0 45.3-27.2 45.3-68.6v-577.7c0-39.1-12-52.2-45.3-52.2v-26.1h189.6v656c0 41.4 0.9 68.6 36 68.6v26.1h-225.6z"/>
			<path id="path40" class="s2" d="m4735.4 1950.4c0 56.6 24.1 66.4 45.3 66.4v26.1c-40.6 1-126.6 16.3-185.8 37h-3.7v-67.5c-46.3 35.9-82.3 62-132.3 62-77.6 0-117.4-50-117.4-141.4v-301.4c0-39.1-12-52.2-45.3-52.2v-26.1h189.5v354.7c0 75 13.9 96.8 45.4 96.8 17.5 0 48-14.2 60.1-29.4v-298.1c0-89.2-10.2-94.6-45.3-97.9v-26.1h189.5z"/>
			<path id="path42" fill-rule="evenodd" class="s2" d="m4972.2 1791.5c0 99.1 34.2 193.7 122 193.7 54.6 0 84.2-33.7 111.9-79.4l20.4 14.1c-25 78.4-88.8 154.5-192.4 154.5-140.5 0-207.1-122.9-207.1-274.1 0-146.9 79.5-261.2 211.7-261.2 72.2 0 143.4 49 169.3 130.6 13.8 42.4 15.7 71.8 15.7 121.8zm120.2-38v-52.3c0-80.5-5.5-130.5-53.6-130.5-56.4 0-64.8 81.6-67.5 182.8z"/>
			<path id="path44" class="s2" d="m5288.4 1886.2h18.5c11.1 67.5 58.3 156.7 123.9 156.7 35.2 0 69.4-19.6 69.4-65.3 0-38.1-15.7-58.8-96.2-103.4-74.9-41.3-119.3-92.4-119.3-173 0-99 58.3-162.1 140.6-162.1 36.1 0 56.4 5.5 71.2 12 14.8 6.5 23.1 12 32.4 12 13.8 0 22.2-12 22.2-24h18.5v164.3h-18.5c-8.4-63.1-50-132.7-108.2-132.7-33.3 0-60.1 21.8-60.1 59.8 0 37 24 57.7 80.4 88.2 62 33.7 127.6 70.7 127.6 183.8 0 106.6-65.6 171.9-154.4 171.9-48.1 0-87.9-25-104.5-25-13 0-22.2 13-25 25h-18.5z"/>
			<path id="path46" fill-rule="evenodd" class="s0" d="m5634.7 1162.6h-5373.3v-23c6.2-0.9 14.6-1.6 29.4-2.7 1.4-8.8 0.2-6.9 2.7-13.4 1.9 0.7 6 0 8 0-0.7 2.2 2.2 7.2-2.7 5.4v10.7c0.9 0.2 7.9-8 13.4-8v8c8.1-0.7 26.7 0 34.7 0 3.8-0.1 25.4-5.3 29.4-5.4 36.4-1.4 72.4 1.9 101.5 2.7 8.6 0.2 13 1.5 21.3 0 2.5-0.5 4.8-7.6 13.4-5.3 1.6 0.4 3.3 4.1 8 5.3-2.9-1.5 2-3-2.7-5.3 0 0 2.1-10.6 2.7-13.4-0.9 0-1.8 0-2.7 0 5.7 0 0.4-43.6 0-53.4 0 0 1.3-4 2.1-4.2 0.2 0.5 0.4 1 0.6 1.5-0.1-1.2-0.3-1.6-0.6-1.5-0.9-1.9-2.1-3.8-2.1-3.8-0.4-1.7 0.2-6.5 0-8 7.3 1.1 5.8 3.8 10.7 0l2.7-2.7c-0.2-1.4-2.4-10.7-2.7-16-5.4-0.8-5.7 1.1-10.7 2.6 0.1 0 0-7.6 0-8 20-5.9 39.7-11 61.4-2.6 0.7 0.2 1.8 4.9 2.7 5.3 10.1 4.4-9.7 5.3-10.7 5.3 0 0-0.8 10 0 16.1 0.9 0 10.5-0.5 10.7 0 6.6 15.2-1.1 32.9-2.7 45.4 2.3-0.3 14.5-2.2 13.6-2.6 10.4 2.7 18.9 4 29.2 7.9 13 4.9 23.9 10.6 40.1 16 0.5-15 1.2-16-2.7-29.3 1.6-1.1 4 2 5.3 2.6 16.7-15.9 4.8-14.1 34.7-18.7v-5.3c-3.1 1.2-4.6-5.4 2.7-5.4v5.4c0 0 4.9-2.5 5.4-2.7 0-2.1-1.3-12.3 0-13.3 4.5-4.5 12.4 0.5 16-5.4 2.8-4.7-3.1-8.4-2.7-10.7 0.3-1.8 8.8-12.7 10.7-16 8.7 1.2 19.4 4.6 26.7 2.7 2.3-0.7-2.7-8-2.7-8 19.2-3.9 6-4 21.4 2.6 2.4-5.9 1.8-9.9 5.3-16 4 2.8 2 4.7 2.7 10.7 19.7-0.4 30.5-5.3 53.4-2.7 1.1-6.3-1.1-10 2.7-13.3 1.9 1.3 5.9-0.9 8 0 1 0.3 4.9 10.8 0 8v5.3c2.8 1 8-1.5 10.7 0 0-2.1-1.2-8.9 0-10.7 0.8-1.4 9.8-1.3 10.7-2.6 1.6 5.9 1.1-0.4 5.3 2.6 1.5 1-2.1 8.7-2.6 10.7 15.6-2.1 21.5-1.9 31.9-2.6-1.4 0.1 6.8 2.6 5.4 2.6 6.7 0.3 7.4-5.1 16.1-2.6 2.6 0.6 2.4 9.4 0 10.6 3-0.9 7.9-4.1 10.7-2.6 0 0 0 7.6 0 8 0 0 6.2 2 8 2.7-1.4-11.4 0.3-21.3 0-26.8 4.6 1 6.1-1.3 10.6-2.6 1.1 4.6 1 1.4 5.4 2.6-0.2 1.3 1.1 14.2-2.7 10.7 1.4 11.3-1.1 20.6 13.4 21.4 4 0.2 20.9-10.7 21.3-10.7 1.7-0.3 13.1 2.3 18.7 2.7v-5.4c3.4 0.1 6 4.3 8.1 5.4 0 0.9 0 1.8 0 2.7 7 1.6-1-1.5 2.6-2.7 10-3.5 40.5-4.1 48.1-2.7 3.3 0.5 4.3 5.8 10.7 5.4 5.3-0.5 12.7-9.6 16-10.7 2.9-1.1 7.8 1.1 10.7 0 0-0.5-0.5-8 0-8 7.6-2.6 28.1 5.1 34.7-5.4 1.8-3.1 1.1-8.3 2.7-10.7 6.7 5.1 2.6 0.8 5.3 10.7 30.1 3.3 71.9 0 109.5 0 7.4 0 19.9-2.3 26.7 0 0.5 0.1 0 9.8 0 10.7 16.6 0 31.4 0 48.1 0 8.2-22.3-0.3-17.5 29.4-18.7-3 1.2 2.4 15.1 2.7 16-8.5-4.9 2 11.3 18.7 10.7v-5.3c5.6 0 12.9 0.7 18.7 0-3.6 3.3 2.6 2.6 2.6 2.6-6.8 5.6-2.6 14.9 2.7 18.7 0.1-0.4 3.8-6.9 5.3-10.6-9-3 5.1-2.3 8-2.7 2.4 5.4 2.4 9.2 5.4 13.3 2.4-0.9 7-3 8-2.6 0 0 1.5 7.7 2.7 8 4.7 0.7 3.6-6.2 10.7-5.4 0.7 0.1 5.6 5.1 8 5.4 0 0 2-9.7 2.6-13.4-7.1-0.8-14.1 0-21.3 0v-5.3c8.2-0.7 28.9 0.1 29.4 0 4.6-1.8 2.2-8 10.6-8 1.8-0.1 1.9 5.6 2.7 8 2.9-1.7 4.9 1.4 8 0v-5.4c7.5-0.8 8.6-1.6 18.7-2.6-0.8 4.8-2.2 18 2.7 16 3.4-1.4 2.7-8 2.7-8v-5.4c16.9-5.9 26.3 13.1 16 8.1 0 0 1.4 19.8-2.7 21.3 20.7 0.7 25.8-2.3 29.4-18.7 2.9 6.3 1.2 9.1 2.7 16.1 17.8 2.4 24.8 2.2 40 2.6-1.1-14.8-1.1-12.9-2.6-26.7h5.3c2 15.3 5.5 31.5 8 45.4 2.3-2 8.1 1.5 10.7 0l2.7-13.3c2.6-0.1 26.7 0 26.7 0 0 0-2.2 10.9-2.7 13.3 4.1 0.9 1.8-3.7 8-2.7l5.4 5.4c6.4 1.7 22.7 1.4 29.3 0 7.6-1.8 19.5-9.4 29.4-13.4v-5.3c5.7-1.5 7.9 3.3 10.7 2.7-10-21.2-12.7-31.3 16-18.7-0.6-2.4-2.6-10.7-2.6-10.7 2.3-1.5 6-2 8-2.7-3.1-1.4 3.5-3 5.3-2.7 6.3 1 6.8 10 10.7 13.4 1.1-0.6 3.9-3.8 5.3-2.7 1-7 1.5-11.7 2.7-16 9.5 0.9 13.1-0.5 18.7 0 5.3 19.7-2.2 32.9 5.4 40.1-4.1-3-2.5 4.1-2.7 5.3 2.7 1.2 7.9 5.3 8 5.3 6.1 1.5 0.1-6 5.3-2.6 1.3 0.8 0.6 7.4 2.7 8 3.4 0.9 4.2-4.9 10.7-2.7 2.5 0.8 1.7 6.8 5.3 8-1.6-8.7 2-5.6 0-13.3-0.1-0.7-4.7-3-5.3-5.4 6.3-3 3.6-4.1 8-8 2 0.7 7.6 2.9 8 2.7 0 0-0.6-5 5.4-8 5.1 4.3-3.5 4.7 5.3 8 1.8-4.8 0-10.7 2.7-16 0.5-1.1 7.5-3 8-5.4 1.3-6.6-5.3-4.1-2.7-10.7 0.2-0.5 7.4-1.2 8-2.6 1.2-2.9-1.1-7.8 0-10.7 0.6-1.9 8.8-8.4 10.7-10.7 11.7 2.2 11.4 2.4 24 5.3-7.6 29.3-1.4 31.3 26.8 24.1 2.5-9.5 2.5-9 5.3-16-1.7-1.4-6-1.8-5.3-5.4 1.4-8.3 10.6-16.9 13.3-24 1.9-5.1-0.5-12 2.7-16 0 0 14.4-4.5 16-5.4 2-1.2 1.2-7 2.7-8h5.3c0 4.5-1 8.8 0 13.4h5.4c4.5 12.7 5 34.7 2.6 34.7 4.4 2.1-5.1 4.4 2.7 2.6 3 11.7 5.4 20.2 8 29.4-6.5 1.8 14.5 3.1 5.4-2.6-1-0.6-8.1-8.1-8.1-8.1 0-0.4 4.2-14 3-15.8 9.4 5.8 14.4 7.5 21.1 15.8 2.1-1 3-1.8 8-2.6v-5.4c4.9-1.2 0.9 4.9 8 2.7 0-0.4-0.2-8 0-8-1.2-0.3-5.3-5.4-5.3-5.4v-5.3c15.7 7.3 19.8 7.3 37.4 5.3-1.2 11.1-1.5 11.2-2.7 21.4 4.7 0.3 9.4-3.7 13.3-2.7 0 0 3.7 9.1 10.7 8.1 4.9-0.9 1.9-3.7 2.7-8.1 38.5 3 87.6 2.8 125.5 5.4 7 0.4 21.5-3.7 29.4-2.7 0.8 0.1 5.6 5 8 5.4-0.3-1 3-10.5-2.6-10.7 5.7-2.9 20.3-12.4 29.3-10.7 0.6 0.1 8.5 7 10.7 8-1 4.8-5.4 9.5-2.7 16 0.3 0.6 8.1 2.7 8.1 2.7 0-10.4-2.2-23-2.7-29.4 0 0 7.1 2.1 6.2 2.6-0.2 0-0.4 0.1-0.6 0.1q0.5 0 0.6-0.1c4.3-0.2 3.7-3.3 7.1-2.6 0.8 0.1 2.3 6.9 5.4 5.4 0.1-0.1 0-7.7 0-8.1 0.2 3-0.4-15.1 0-21.3 0.1-1.9 4.7-12.5 2.7-18.7-1.1-3.3-7.6-3.6-10.7-5.4v-5.3c3.6-2 6-4.4 8-5.3 10.2-5.2 32.1-1.9 50.7-5.4 15.7-3.1 38.2-12.1 56.1-16 0-36.1 0.9-77.7-2.7-109.5 23.2-3.2 39.9 0 66.8 0 0-24.2-3.4-54.3 13.4-61.4 5.9-2.6 10.4 2.9 13.3 2.6l5.4-5.3c22.5-6.1 29.5 22.1 32 40-7.3 0-0.3 8.6 0 8.1-0.2 0.8-2.7 13.3-2.7 13.3 34.9 4.1 32.1 2.2 26.8-37.4 14.8 0 36.9-1.9 45.4 5.4 0 0-0.5 26.2 0 29.3 25.4 0 46.3 3.1 66.7 5.4-2 24.5 1.9 54.3 0 80.1l-2.6 8c13.3 2.8 26 7.1 34.7 5.4 2.1-0.5 8.7-7.3 10.7-8 22.5-9.8 41.3-15 64.1-24.1 0 0 3.6-12.1 2.6-16-1.1-4.6-10.3-10.5-13.3-13.4v-5.3c3.3-1.9 9.4-1.9 10.7-5.4 7-20.3-1.7-145.4-2.7-149.5-2.9 0.9-3.3 4.6-8 2.7 7.8-4.6-5.1-1.1 10.7-5.4 0.7-20.2-3.2-56.5-2.7-74.8 0-2.9 4.8-12 2.7-18.7-0.6-1.6-9.1-4.6-10.7-5.3 0-3.6 1.3-10 0-13.4 10.1-9.2 7.4-6.8 21.3-13.3 0-28.1-7.2-38.2 0-61.4 0.2-0.8 5-1.9 5.4-2.7 1.2-3.2-1.3-4.9 0-8 2.4-6.6 15.8-7.5 18.7-13.4 4.7-10.2-2.1-12.3 0-21.4 0.3-1.8 7.8-10.3 8-10.6 4.6-17.2-10.8-26.7 2.7-34.8-6.6-3.5-1.1-3.9 2.7-5.3 0 1.1-0.9 10.2 0 10.7 2.5 1.5 8.1-1.9 10.6 0v5.3c-2 1.1-8.5 0-10.6 0 0.2 6.9-0.6 19.9 0 21.4 1 2.7 9.1 6.1 10.6 10.7 2.8 8.6-1.3 21.2 0 24 0.3 0.6 13.2 9.4 16 13.4 7 9.7 6.6 14.8 8.1 32 0.1-0.7 5-1.8 5.3-2.7 1.4-3.7-1.4-9.5 0-13.3 0.8-2.4 7.2-3.1 8-5.3v-5.4c1.9-1.5 9.8-1.1 10.7-2.7 4.9-9.5-1.1-21.3 2.7-32 0.8-2.5 10-7.3 10.7-10.7 1.1-6.4-1.5-9.9-2.7-16h-5.4c0-0.3 4.1-10.6 5.4-16.1 6.5 5.1 2.6 0.8 5.3 10.7 10.9-0.4 15.6 0.7 2.7 5.4 0.5 6.4-2.2 15.3 0 21.3 0.3 1.2 4.4 2.5 5.3 5.4 1 3.2 1.8 11.8 2.7 18.7 0 0 1.8 11.5 2.7 13.3 0 0 7.2 4.2 8 5.4 2.3 3.3 9 6.2 10.7 10.7 3.8 10.4 6.7 33.3 0 37.4 0.1 0.6 1.6 14.5 2.6 10.6-0.6 3-0.9 14.6-2.3 15.9 5-2.1-1.2 4.2 5 2.8 0 0 2.5-5.2 2.7-5.3 2.9-1.9 7.8-0.5 10.7-2.7 0-0.1 11.6-19.3 13.3-21.3-1-0.5-4.4-3.6-5.3-2.7 1.7-3.9 2.7-13.8 8-18.7 2.4-2.3 9.7-2 10.7-5.4 2.1-7.7-8.5-34.8-8-37.4 0.2-1.8 9.9-3.6 10.7-5.3 3-7.7-0.4-15.3 2.6-21.4 0.3-0.6 16.1-10.6 16.1-10.6 1.8-4.3-2.7-8-2.7-8-0.3-4.6 3.2-27.8 5.3-34.8 0.1-0.6 4.4-2.2 5.4-2.7 0-2.8-0.9-8 0-10.6h5.3c1.3 1.1 0 11.4 0 13.3 6.7 1.4 9.9-0.2 16 2.7-0.1 0-2.4 4.7-2.6 5.3-8.3-0.5-4.3-1.4-10.7 0 1.1 3.9-1.3 9.5 0 13.4 0.1 0.3 8.6 2.2 5.3 16-0.1 0.5-4.2 0.8-2.6 5.4 0.9 3 11.5 4.6 13.3 8 3.8 6.8 1.3 14.7 2.7 24 3.8 1.3 9.9 3 13.3 5.3-3.6 6.6-13.1 23.8-10.6 34.8 1.5 7.1 16.4 12.2 18.6 18.7 1.5 4.5-5.2 10.6-2.6 18.7 0.7 2.3 6.4 1 8 2.6 3 3-0.8 8 2.7 10.7 2.7 2.1 7.6 1.1 10.6 2.7 14.5 7.5 38.5 29.5 48.1 42.7 24.3 33.3 25.7 75.3 24.1 120.2 6.4 1.7 4.7 0 10.6 0-2 4.9-7.8 15-8 18.7-0.1 0.6 5.4 16 5.4 16-5 0.9-1.6 1-2.7 5.4 0.1 0 0 7.6 0 8-0.3 0-0.5 0-0.8 0-1.9-0.8-7.1-0.1 0 0 1 0.4 1.1 1.2-1.9 2.7 5.3 2.6 0.4 42.7 0 50.7 0.1-0.3 10.1-7.6 10.7-10.7 1.7-10.3-1.5-29.9-2.7-45.4 5 1.9 4.7 5.7 5.4 5.4-2.4-2.3 9.4 2.3 10.7 5.3 6.4 15.6-5.1 23 0 40.1 0.3 1.3 4.1 3.9 5.3 8 3.7-1 4.4-4.8 10.7-2.7-3.4 1.3-3.5 7.3-5.4 10.7 4.2 0 11.6-0.4 16.1 0 1.5-6 7.1-15.8 8-21.4 1.3-8.5-0.6-20.4 0-34.7-0.6-0.3-5.4-2.7-5.4-2.7-0.5-7.5 2.5-23.4 2.7-29.3-2.6 0.5-10.7 2.6-10.7 2.6v-5.3c-0.5-0.2 2.4-4.9 2.7-5.4-6.3 0-1.2 2.1-8 0v-5.3c1.9-1.2 8.4 0 10.7 0 0.6-16.8 1.1-14.6-2.7-29.4 11.9 0.4 15.4 2.1 29.4 2.7 0-10.4 2.2-22 0-32.1h-5.4c-1.1-6.8-3.9-9-2.6-13.3 0.8-3.2 9.5-4.9 10.6-8 2.7-8-0.9-21.1 0-29.4 1.6-15.2 7.9-47.6 13.4-61.4 3.8-10 13.8-20.5 18.7-29.4 1.5-2.9-1.2-5 0-8 1.3-3.4 8.6-7.6 10.7-10.7 17-25.8 32.5-47.9 56.1-66.8 6.9-5.6 36.9-18.9 40-24 8.9-15-4.6-27.5-2.6-45.4 0.9-9.1 10.7-13.4 10.7-13.4 1.1-3.7-2.7-10.7-2.7-10.7 7.9-4-0.3-30.5 2.7-40l8-5.4c0 15.6 1 30.6 2.6 42.8 4.3-20.8 5.4-44.3 5.4-72.2-3.6-1.8-6.5-1.4-8-5.3 4.2-1.9 6.6-1.5 13.3-2.7 1-13.1 4.6-33.3 10.7-42.7 2.7-4.3 26.7-18.7 26.7-18.7 3.7-6.7-3.7-7.3-2.7-13.4 0 0 7.4-9.4 8.1-10.6-4.1-1 0.7-1.4-5.4 0 1.3-10.2 2.8-28.4 5.4-37.4 2-7.9 0.7-11.2 8-13.4 2.1-0.7 5.9 0 8 0-1.7 7-5 9.1-5.4 13.4-0.6 7.4 7.1 22.3 5.4 32-0.2 0.4-3.7 3.5-2.7 8l5.3 5.4c0.3 1.4-1.7 11.4-2.6 8 0 0.6 0.5 7.7 0 8 21.5 11.2 28.3 15.7 34.7 42.7 1.3 6 1.8 5.8 2.7 16.1 4.7 1.2 3.6-2.1 5.3 2.6 10.9-3 6.8 8.8 0 10.7 0 0.1 0.7 12.4 2.7 8-0.6 7.9-2.4 17.1-2.7 21.4 2.7 0.9 7.6 0.3 8 2.7 1.9 10.5 0 23.9 0 34.7h5.4c0-13.5 0-26.6 0-40.1h5.3c-0.4 8.3-3.1 22.6-2.7 26.7 0.3 2.8 7.6 13.3 8 16.1 0.4 2.3-2 7.6-2.6 5.3 0 0.3 0 8 0 8 4.9 7.5 9.8 4.5 10.7 18.7 0.1 4.4-2.7 29.4-2.7 29.4 0 0.3 0 8 0 8 65.5 36.8 97.1 69.7 128.2 141.6 0.7 1.5 7.6 7.1 8 8 0.4 1 2.7 8 2.7 8 1.9 15.3 4.7 48.5 8 72.1l8 2.7c0.5 0.8 5 11.4 2.7 13.3-3.2 2.4-3.4 1-8 2.7 0 11.3-2.2 24.6-2.7 32 5.8 0.5 17 2.3 26.7 2.7 1.1 27.6-1.9 22.3 13.3 29.4-1.6 1.1-3.7 9.5-5.3 10.7-3.8 2.7-10.2 3.4-13.3 5.3 5 24.6-1.5 42 2.6 72.1l10.7 2.7c1.9-18.3 8-33.5 8-61.4 1.4 1 9.9 2.4 10.7 2.6 0 0 0.3 17.8 0 16.1-1.7 11.7-3.1 19.1-5.3 29.4 0.6 0.5 7.8 4.7 8 5.3 1.3-6.6 0.3-9.2 2.2-14.8-1.7 3.2-4.9-6.6-4.9-6.6h5.4c1.3-4.7-1.5-8.7 0-13.3 0.9-3.6 8.2-9.5 10.6-13.4 0.7 3.6 4.8 15.5 5.4 18.7v-5.3c3.9-3.2 0.3-3.4 2.6-8 2-4.1 10.1-5.2 13.4-8.1-2.8 19.1-2.9 37.5-8 53.5 7.7 4.1 4.7 7.6 5.3 8 3.9 2 5.9-2 8-2.7-0.5 0.5 0.5 7.8 0 8-6.3 2.7 0.3-1.2-2.6-2.7-0.6 1.6-3.7 10-5.4 13.4 16.5 2.9 41.6 12.1 37.4 42.7-1 6.9-6.5 12.1-10.7 16.1-1.5 1.4 1 8.3 2.7 5.3l5.3 13.4c9.2 8.5 3.1-11 2.7-16.1 8.9 5 1.5-21.9 5.4-18.7 15.3-12.6 11-16.4 13.3-40l8-2.7c0 3.2-1.6 10.7 0 13.4 11.4 19.7 11.4 5 13.4 5.3-1.1-0.8-5.9-9.8 0-8-0.3-3-2.4-13.4-2.7-13.5 0.7-2.8 4.9-4.1 5.4-5.2 1.6-5-1.9-11.1 0-16h5.3c2.3-6.2 3.2-7.1 5.3-10.7v5.3c0 0-0.5 16.8 0 21.4 0 0 5.7 10.3 5.4 10.7-3.4 3.1-6.2 6.1-5.4 13.3 0 0 5.8 8.7 8.1 13.4-1.4-1.2-4.3 2.1-5.4 2.7 1.3 0.6 4 8.5 5.4 10.6 3.8-0.2 3.5-4.8 5.3-5.3 7.9-2.4 6.7 5.1 8 5.3 2.4 0.5 5.2-3.7 10.7-2.6-1.4 10.2-3 11.2-5.3 21.3h5.3c0.5 7.1-4 5-2.7 13.4l5.4 5.3c1.8 7-1.6 18.3-2.7 26.7l8 5.4c1.3-4 2.7-3.3 5.3-5.4-0.5-1-3.5-4.2-2.6-5.3 0.6-0.8 6.2-4.6 7.9-7.9 1.2-0.1 15.5-5.4 18.8-8.1 5.4-4.9 10.4-43.3 5.3-58.8 1.2-1.2 4.3 2.1 5.4 2.7 2.6-4.8 2.8-7.7 5.3-13.4h8c2.5-5.6-3.1-7.6-2.7-10.7 0.2-1.4 7.7-9.4 8.1-10.6 1.1-4.8-1.3-8.7 0-13.4h-5.4c2.5-5.2-0.2-1.2 5.4-2.7 0-0.4 0-8 0-8 4.9 0 1.9 4.1 2.6 8 1.5-0.9 6.4 0 8 0-1.5 4.7-3.1 1.8-8 2.7 1.5 6.1 2.7 32.1 2.7 32.1 0.2 0.4 9.8 0 10.7 0 1.2 2.6-5.3 3.7-2.7 5.3 4.4 2.6 6 6 8 10.7h5.4c1.8 7.8-4.6 9.6-5.4 13.3-2 9.5 2.2 21.2 2.7 26.7 0.3 0 7.9-0.1 8 0 1.4 2.9-1.7 7.5-2.7 10.7 1.5 1 18.7 16.1 18.7 16.1 10.6 2.1 21-5 29.4-8.1-0.5-1.5-3.7-10.4-2.7-10.6 9.1-2.8 14 3 21.4 5.3-0.4-9.9-3.5-23.2-2.7-29.4 2.5-19.1 9.5-11.2 18.7-13.3 0 1.5-0.9 6.5 0 8 0.8 1.3 7.5 2.2 8.1 5.3 0.4 2.4-3.7 5.2-2.7 10.7-2.4-2.2 0.1 6.6-2.7 8 6.3-1.7-0.8 3 5.4 2.7 5.9-0.4 18.3-10.8 24-13.4-0.8-3.2-2.9-10.1-2.7-10.6h5.4c2 5.5-1.2 8.6 0 10.6 5 9 13.4 0.5 21.3 2.7 2.9 0.8 10 8.9 13.4 10.7 5.7 3.1 11.1 5.3 16 8-0.4-8.3-4.8-33.6 5.4-26.7 0.4 0.2-2.1 10.8-2.7 13.3 3.2-2.8 1.3 4.4 5.3 2.7 0.4-0.2 0-9.8 0-10.7 10.9 0.4 14.3-0.3 21.4 0-6.8 20.9 0.8 8-10.7 5.4 3.3 6.5 6.4 18.7 13.4 21.3 3.8 1.5 3.8-5 5.3-5.3 1.9-0.4 9.7 5.3 10.7 5.3 1.2 0.1 19.6 0.5 21.4 0 1.4-0.4 1.7-5 5.3-5.3 1-3 0.2-7.3 2.7-8h5.3c0 0-2.2 8.3-2.7 10.7l8 2.6c5.2-8.4 8.1-19 18.8-21.3 11.3-2.6 33.9 7.4 45.3 5.3 5.3-1 5.7-7 8.1-10.7h5.3l2.7 8c5.9 2.2 19.2-0.1 26.7 0-1.9-18.8-1.3-16.5 0-37.3 0 0 7.6 0 8 0 1.4 15.2 0.8 23.1 0 34.7 10.3 0.1 9.8-0.2 21.4 0-2.2 10.8 5.6-6.7 2.6-5.4-5.2 2.3-0.5-1.5-2.6-2.6 2.1 0.3 17.6 1.1 8 2.6 0 0 0 10 0 10.7h5.3c0-5.7-1-13.1 0-18.7h5.4c0.2 1.9 7 21.8 2.6 24.1 1.8-0.8 3.8 1.8 5.4 2.6 3.4-3-3-2.2 5.3-8 1.6 1 0.4 11.8 2.7 13.4 3 2.1 2-4.5 8-2.7v5.3c4.4 2.3 10.3 6.6 13.3 8.1q1.4 0 2.7 0c-5.4-4.3 5.1-5.3 5.4-5.4 1 4.1-0.8 9.7 2.6 10.7 5 1.3 1-5.2 8.1-2.7 2.2 0.8-3.4 5.3 2.6 2.7 6.8-3-5.2-16.9 2.7-18.7 7.3-1.7-2 3.7 5.3 2.7 7.6-1.2 10-2.5 16.1-2.7-1.9 6.1-4 26.2-2.7 21.4 0 0 1.1 7.4 2.7 2.6 4-13.2-6.3-22.9 13.3-18.7v5.4c9.1-4.6 3.5 6.8 2.7 16 3.3 0 10.3 42.7 13.3 44.2v-5.3c7 1 9.5 2.2 18.7 2.6v-5.3c-7.6 2.6-2.9-3.8-5.3-5.3-4.7-3.2 11.6-4.8 18.7-5.4-9.6-4.7-30.4-18.2-5.3-16 3.4 0.2 13 4 18.6 5.3v5.4c13.1 2.6 20.5-2.1 29.4-2.7 1.2 4.4-2.1 4.1 2.7 5.3-4.1 1.5-9.9 6.3-13.4 8.1 6.2 2 7.7-3.7 10.7-2.7v5.3c12 6 8.2 0.2 2.7 18.7 2.8-0.7 14.3-5.4 18.7-5.3 0.7 0 14.5 5.6 16 5.3 1.4-0.3 1.7-5.1 5.4-5.3 0 0 6.5 4.1 10.6 2.7 0.1-0.1 0-7.7 0-8.1 1.6 0 6.5 0.9 8.1 0 1.9 1.4 1 7 2.6 8.1 2.5 1.6 5.1-1.2 8 0 4.2 1.5 5.3 10 8.1 13.3 0.5-2.8 2.1-9.6 2.6-16 3 2.5 7.2 3.6 10.7 5.3-0.3 0.9-5.3 5.8-2.7 8 3.4-1.7 3.6-7.1 5.4-8 0 0 55.6-0.2 61.4 0 0 0 6.8 4.5 10.7 2.7 5.7-2.8-2.7-2.7-2.7-2.7 1.1-6.1 1-9.2 0.6-10.7 0.8 0.4 2.3 0.5 4.8 0l2.6-2.6c1.5 4.5 5.4 13.3 5.4 13.3l2.6 2.7 2.3-2.2c1.1 0.7 7.9 2.1 8.4 2.2-2.1-6.6-3.6-19.5-2.6-16 0-0.4 0-7.9 0-8 0.6 0.5 7.1 0 8 0-0.1 0 0 9.9 0 10.6-6.1-0.5 7.7 2.2 13.3 2.7-2.9-0.5 0.4-1.5 3-2.1-2.6 1.5 9.3 5.5 18.4 2.1l2.7-5.3h10.1l0.5-10.7c6.9-2.3 19.4 0 26.8 0 37.6 0 79.4 3.3 109.5 0 2.7-9.9-1.4-5.6 5.3-10.7 1.6 2.4 0.8 7.6 2.7 10.7 6.6 10.5 27.1 2.8 34.7 5.3 0.5 0.1 0 7.5 0 8 2.9 1.2 7.7-1 10.7 0 3.3 1.1 10.7 10.3 16 10.7 6.3 0.4 7.4-4.8 10.7-5.3 7.6-1.4 38-0.8 48.1 2.7 3.5 1.1-4.4 4.3 2.6 2.6 0-0.8 0-1.7 0-2.6 2.1-1.1 4.7-5.3 8.1-5.4v5.4c5.6-0.4 17-3.1 18.6-2.7 0.5 0 17.4 10.8 21.4 10.7 14.4-0.9 11.9-10.1 13.4-21.4-3.8 3.4-2.5-9.4-2.7-10.7 4.4-1.2 4.3 1.9 5.3-2.7 4.6 1.4 6.1 3.6 10.7 2.7-0.3 5.4 1.4 15.4 0 26.7 1.8-0.6 8-2.6 8-2.6 0-0.5-0.1-8.1 0-8.1 2.8-1.5 7.7 1.8 10.7 2.7-2.4-1.2-2.6-10 0-10.7 8.7-2.4 9.4 2.9 16 2.7-1.4 0 6.9-2.5 5.4-2.7 10.5 0.8 16.4 0.5 32 2.7-0.5-2-4.1-9.7-2.6-10.7 4.2-3 3.7 3.3 5.3-2.7 0.9 1.4 9.8 1.3 10.7 2.7 1.1 1.8 0 8.5 0 10.7 2.6-1.5 7.8 1 10.7 0v-5.3c-5 2.8-1-7.7 0-8.1 2.1-0.8 6.1 1.4 8 0 3.8 3.4 1.6 7.1 2.6 13.4 23-2.6 33.8 2.3 53.5 2.7 0.7-6-1.3-8 2.6-10.7 3.6 6.1 3 10.1 5.4 16 15.4-6.6 2.2-6.5 21.4-2.7 0 0-5.1 7.4-2.7 8.1 7.3 1.9 18-1.5 26.7-2.7 1.9 3.2 10.4 14.2 10.7 16 0.4 2.3-5.5 5.9-2.7 10.7 3.6 5.8 11.4 0.8 16 5.3 1.3 1.1 0 11.3 0 13.4 0.4 0.2 5.4 2.7 5.4 2.7v-5.4c7.3 0 5.7 6.5 2.6 5.4v5.3c30 4.6 18.1 2.8 34.8 18.7l25.5 1 9.4-23.4 26.2-1.5 0.9 10-3.3 16.5h34.8l-5-16.5 31.4 12.2 0.2 17.6 34.8 23.2 18.2 36.5zm-424-176.5q0 0 0 0 0 0 0 0zm-438.1-2.6q0 0 0 0 0 0 0 0zm-865.3-46.9q-0.1 0.1-0.1 0.1-0.2 0 0.1-0.1zm-66.8-96.2q0-0.1 0-0.1 0 0.1 0 0.1zm-104.2-40q-0.2 0.6-0.4 1.2 0.2-0.5 0.4-1.2zm-801.2-237.7q0.1 0 0.3-0.2-0.2 0.1-0.3 0.2zm-398 229.7q0 0 0 0 0 0 0 0zm-248.4 208.3q0.2 0 0.3 0-0.1 0-0.3 0zm-301.8-2.7q0.2 0 0.3 0.2-0.1-0.1-0.3-0.2zm-1081.7 5.4q-0.1 0-0.1 0 0 0 0.1 0zm-312.5 88.1q0.1 0 0.2 0.1-0.1-0.1-0.2-0.1zm4075.8-86.7l2.7 5.4c-1.1-3.7 2.5-5.4-2.7-5.4zm-117.5-8c1.5 0.8 1.1 4.5 2.6 5.4 4.8 2.3-0.7-4.5-2.6-5.4zm-5.4-16q0 0 0 0 0 0 0 0zm0 0c-0.1-0.2 7-7.7-2.7-5.4-4 0.9 2.5 5.3 2.7 5.4zm-5.3 13.3c-7.8 1.9 1.5 4.5 5.3 5.4 0 0 4.9-7.9-5.3-5.4zm-64.1-38.8l2.7 5.3c-1.1-3.7 2.4-5.3-2.7-5.3zm-312.5-48.1c0.9 0.5 0 11.9 0 13.4 8.2 0 7.9-15.3 0-13.4zm-288.5-8c-7.4 3.3 2.3 11 2.7 13.3 0.3-0.1 0-9.9 0-10.6 5.9 1.2 1.6-4.6-2.7-2.7zm-37.4-29.4h-5.3c2.2 1.4 2.4 9 5.3 10.7 4.7 2.6 0.3-9 0-10.7zm-90.8-56.1l2.7 5.4c-1-3.7 2.5-5.4-2.7-5.4zm-40 16c0.6 0.4 1.4 7.4 2.6 8.1 5.7 2.8-1-7.3-2.6-8.1zm-184.3-456.7c-2.4-1.1 2.9-5.5-2.7-2.6 1.8 0.3-2.5 12.6-2.7 13.3 10.8-5.4 9.5-14.6 5.4-10.7zm-24.1-56.1l2.7 8c-0.7-3.8 2.3-8-2.7-8zm-32-16h-5.4l-0.7 54 5 2.8zm-26.8 2.7l-5.3-2.7c-1.2 15.2-2.7 39.4-2.7 58.8l5.4-2.7c2.9-7.6 3.2-52 2.6-53.4zm-58.7 66.8c0.2 0-1.9 2.8-5 0.3 2.5 2.7-2.8 9.6-3 10.4 3-1.6 7.3 1.6 10.7 2.7-0.3-2.4 1.2-16.2-2.7-13.4zm-5.4 0q0.2 0.2 0.4 0.3-0.1-0.1-0.4-0.3zm-357.9 122.9c-4 2.5 2.7 16 2.7 16 0.5-0.2 6.3-22.1-2.7-16zm-8-2.7c-0.5 7.3-2.6 20.7-2.6 32h5.3c0-1.6-0.2-6.4 0-8 0.7-7.7-2.6-20.8-2.7-24zm-10.6 0c0.5 7.2 0 14 0 21.4 4.3 0 4.3-21.4 0-21.4zm-96.2-29.4c0.7 0.2 0 11.9 0 13.4 6.9 1.9 5.7-13.4 0-13.4zm-5.4 0c-2.5 1.7-4.8 15.3 2.7 13.4-0.2-2.4 1.4-16.2-2.7-13.4zm-29.3 74.8c-0.7-0.3-5.4-2.7-5.4-2.7 3.5 2.4-2.6 12.9-2.6 13.4l8 5.3c0-5-1.1-11.3 0-16zm-8-10.7c2.9 1.4 2.4 0.9 5.3 2.7-0.8-3.9 2.3-8-2.7-8 0.5 0-2.5 4.8-2.6 5.3zm-16.1 88.1h-5.3c0 16.6 0 34.2 0 50.8h5.3c0-16.8-0.9-32.2-2.6-45.4 0.9 0 1.8 0 2.6 0zm-13.3-160.3l2.6 5.4c-0.9-3.7 2.1-5.4-2.6-5.4zm2.6 211c0-22.3-0.7-40.5-2.6-53.4-0.4 0-8 0.1-8 0 0 18.1 0 35.2 0 53.4 1.2-1.1 8.9 0 10.6 0zm-21.3-50.7c0 18.3 0 35 0 53.4 0.3-1.4 7.7-7.8 8-10.7 1.3-11.1-6.3-33.5-8-42.7zm8-162.9l2.7 8c-0.8-3.9 2.2-8-2.7-8zm-1033.6 600.9c-3.5 0.7 2.6 8 2.6 8 0 0 9.1-10.8-2.6-8zm-272.5-16v8c9.8 0 9.4-8.6 0-8z"/>
		</g>
	</g>
</svg>